<?xml version="1.0" standalone="no"?>
<!DOCTYPE svg PUBLIC "-//W3C//DTD SVG 20010904//EN"
 "http://www.w3.org/TR/2001/REC-SVG-20010904/DTD/svg10.dtd">
<svg version="1.0" xmlns="http://www.w3.org/2000/svg"
 width="150.000000pt" height="150.000000pt" viewBox="0 0 150.000000 150.000000"
 preserveAspectRatio="xMidYMid meet">
<metadata>
Created by potrace 1.11, written by Peter Selinger 2001-2013
</metadata>
<g transform="translate(0.000000,150.000000) scale(0.100000,-0.100000)"
fill="#000000" stroke="none">
<path d="M785 1423 c-142 -12 -298 -83 -417 -191 -61 -55 -44 -57 25 -1 75 61
199 123 287 143 229 53 472 -51 605 -259 220 -343 63 -798 -320 -931 -108 -38
-272 -40 -380 -6 -184 59 -343 201 -421 377 -99 225 -37 485 167 709 61 67 51
73 -23 12 -54 -44 -69 -60 -124 -131 -119 -153 -167 -349 -130 -530 54 -262
277 -488 539 -548 126 -28 242 -20 407 29 67 20 191 102 253 167 134 140 199
303 199 492 0 122 -19 201 -75 315 -53 110 -178 239 -277 287 -100 48 -220 73
-315 66z"/>
<path d="M715 1193 c-19 -5 -89 -57 -127 -95 -20 -20 -43 -60 -40 -70 1 -5 -3
-8 -9 -8 -6 0 -9 -6 -6 -14 3 -8 0 -19 -6 -24 -8 -7 -12 -38 -11 -86 1 -42 -3
-76 -8 -76 -5 0 -7 -4 -3 -9 3 -5 1 -12 -5 -16 -5 -3 -10 -28 -10 -56 0 -50
-6 -59 -28 -37 -9 9 -12 9 -12 0 0 -9 -8 -7 -24 5 -21 16 -22 20 -9 40 8 12
28 26 44 32 34 12 37 33 9 68 -11 14 -20 21 -20 16 0 -6 -18 -10 -40 -9 -31 0
-43 -4 -55 -22 -9 -12 -23 -22 -31 -22 -8 0 -15 -3 -15 -7 -1 -5 -3 -19 -5
-33 -1 -14 -6 -38 -10 -53 -4 -17 -1 -38 6 -53 8 -13 11 -27 7 -30 -3 -4 -1
-12 6 -20 32 -36 37 -45 37 -73 0 -21 6 -32 20 -36 12 -4 20 -15 20 -28 0 -17
6 -23 25 -25 13 -1 27 3 31 9 4 6 11 1 18 -13 7 -12 18 -22 24 -20 7 1 12 -5
12 -13 0 -8 7 -15 15 -15 8 0 15 -5 15 -12 0 -6 7 -4 18 5 10 10 32 17 49 17
31 0 64 36 98 107 8 18 19 33 24 33 12 0 42 -36 39 -46 -1 -5 10 -29 25 -54
27 -46 101 -94 115 -74 4 5 16 9 27 8 11 0 32 11 47 24 19 17 32 22 45 17 28
-12 46 -14 57 -7 6 4 13 7 16 8 25 4 60 31 60 46 0 10 7 21 15 24 11 5 15 22
15 63 0 32 3 61 7 65 4 3 8 14 10 24 13 73 14 94 7 109 -4 10 -8 25 -9 35 -3
25 -15 51 -21 45 -3 -3 -16 1 -30 8 -13 7 -35 10 -49 7 -31 -6 -33 -39 -5 -75
27 -33 25 -47 -7 -75 -18 -15 -37 -22 -58 -20 -27 3 -30 6 -28 36 1 18 -3 32
-10 32 -6 0 1 13 16 28 15 16 24 31 20 35 -3 4 -1 7 5 7 7 0 12 7 12 15 0 8 4
15 9 15 4 0 7 11 6 25 -2 14 1 27 6 31 12 7 12 84 -1 84 -5 0 -8 10 -6 23 2
12 -5 34 -16 50 -11 15 -16 27 -13 27 13 0 -71 75 -102 92 -32 18 -155 24
-208 11z"/>
</g>
</svg>
