<?xml version="1.0" standalone="no"?>
<!DOCTYPE svg PUBLIC "-//W3C//DTD SVG 20010904//EN"
 "http://www.w3.org/TR/2001/REC-SVG-20010904/DTD/svg10.dtd">
<svg version="1.0" xmlns="http://www.w3.org/2000/svg"
 width="300.000000pt" height="300.000000pt" viewBox="0 0 300.000000 300.000000"
 preserveAspectRatio="xMidYMid meet">
<metadata>
Created by potrace 1.11, written by Peter Selinger 2001-2013
</metadata>
<g transform="translate(0.000000,300.000000) scale(0.100000,-0.100000)"
fill="#000000" stroke="none">
<path d="M1509 2905 c-3 -2 -21 -7 -40 -10 -98 -13 -246 -61 -347 -110 -40
-19 -75 -35 -78 -35 -9 0 -207 -132 -219 -146 -5 -6 -21 -19 -35 -28 -14 -9
-53 -44 -88 -78 -88 -87 -65 -99 30 -16 174 152 347 242 623 328 103 31 318
38 462 15 159 -26 358 -111 489 -210 60 -45 232 -222 261 -269 14 -22 29 -43
33 -46 15 -11 109 -191 133 -256 33 -86 64 -202 74 -274 16 -108 9 -364 -11
-458 -20 -93 -69 -230 -113 -317 -298 -588 -985 -852 -1603 -614 -30 11 -59
24 -65 27 -5 4 -14 7 -20 8 -21 3 -185 103 -242 147 -90 69 -223 205 -296 303
-72 97 -155 249 -181 334 -10 30 -20 62 -23 70 -8 21 -16 55 -31 130 -9 46 -9
314 0 365 15 85 20 102 43 180 68 224 203 443 424 685 35 38 56 69 51 74 -13
14 -109 -63 -236 -189 -152 -151 -249 -287 -329 -460 -20 -44 -40 -87 -45 -95
-4 -8 -15 -41 -24 -72 -89 -308 -69 -635 58 -912 77 -167 167 -295 316 -450
196 -204 407 -329 666 -395 215 -56 488 -56 714 -1 317 77 618 279 819 549 65
88 161 260 181 326 7 22 17 46 23 53 5 6 7 12 4 12 -3 0 3 24 13 53 41 116 54
223 53 422 -1 190 -1 194 -48 394 -11 44 -84 219 -116 278 -194 350 -518 602
-864 669 -11 2 -31 7 -45 10 -30 8 -365 16 -371 9z"/>
<path d="M1664 2660 c-5 -4 -38 -10 -74 -13 -58 -5 -100 -12 -107 -17 -2 -2
-6 -3 -10 -5 -53 -14 -71 -21 -107 -40 -73 -39 -89 -49 -118 -77 -15 -16 -32
-28 -37 -28 -8 0 -24 -17 -92 -98 -10 -13 -19 -26 -19 -28 0 -2 -15 -25 -33
-51 -29 -42 -45 -76 -82 -178 -4 -11 -10 -33 -12 -50 -8 -54 -13 -260 -6 -275
14 -35 11 -50 -22 -91 -18 -24 -31 -47 -29 -51 3 -4 0 -8 -6 -8 -6 0 -9 -4 -5
-9 3 -5 1 -12 -5 -16 -12 -8 -13 -122 -1 -129 5 -3 11 -17 13 -31 4 -21 0 -28
-28 -41 -24 -12 -38 -13 -47 -6 -6 6 -29 9 -49 8 -21 -1 -38 2 -38 6 0 5 -4 8
-10 8 -19 0 -46 36 -45 60 1 39 15 70 30 70 8 0 18 6 22 14 4 8 11 15 15 16
21 3 76 31 101 50 30 24 36 60 12 80 -8 7 -13 15 -10 19 2 4 -7 19 -19 34 -23
27 -66 37 -66 16 0 -8 -4 -8 -12 -2 -14 11 -29 14 -75 15 -44 1 -59 -6 -94
-40 -18 -18 -37 -32 -41 -32 -5 0 -21 -13 -36 -29 -15 -16 -37 -32 -49 -35
-14 -5 -20 -12 -16 -22 3 -7 0 -14 -6 -14 -15 0 -14 -57 2 -63 10 -4 10 -6 0
-6 -9 -1 -13 -17 -13 -47 0 -26 -4 -43 -9 -39 -31 18 -34 -77 -4 -120 7 -11
13 -27 13 -37 0 -10 4 -18 10 -18 5 0 8 -13 6 -29 -2 -22 5 -40 28 -68 17 -21
34 -39 38 -41 5 -2 8 -10 8 -18 0 -8 6 -17 13 -20 13 -5 15 -53 2 -73 -3 -6
-1 -11 5 -11 6 0 8 -5 4 -11 -10 -17 29 -81 46 -76 25 7 69 -52 64 -86 -1 -9
5 -22 13 -29 17 -14 113 -19 113 -6 0 4 11 8 24 8 19 0 24 -4 21 -20 -2 -11 0
-20 4 -20 5 0 11 -9 14 -20 3 -11 14 -20 24 -20 24 0 43 -19 43 -43 0 -34 104
-63 116 -32 4 8 17 15 29 15 13 0 27 5 30 10 4 6 11 8 16 5 5 -4 16 -2 26 3
11 7 23 6 34 -1 9 -6 24 -7 35 -2 11 5 22 7 27 7 4 -1 7 7 7 17 0 11 5 21 12
23 8 3 9 11 3 24 -17 39 -8 54 33 54 12 0 22 3 22 8 0 4 11 20 24 35 14 16 22
35 19 43 -3 8 5 25 18 37 13 13 32 36 41 53 12 22 25 30 51 32 30 3 37 -1 56
-31 11 -19 21 -46 21 -59 0 -14 9 -35 19 -47 15 -17 18 -29 11 -45 -6 -17 -4
-25 12 -35 11 -7 17 -15 14 -18 -3 -4 4 -11 17 -17 12 -7 22 -21 22 -33 0 -12
14 -38 32 -57 31 -35 53 -46 53 -26 0 16 14 12 43 -15 15 -14 27 -22 27 -18 0
4 5 2 12 -5 17 -17 64 -15 82 3 8 8 25 15 38 15 13 0 29 5 36 12 9 9 12 9 12
0 0 -17 45 -15 60 3 7 9 15 13 18 10 5 -5 28 23 32 40 6 24 90 48 90 26 0 -5
14 -12 30 -16 17 -4 30 -11 30 -16 0 -14 51 -2 80 19 14 11 35 22 48 26 12 4
22 11 22 15 0 4 14 6 32 5 42 -3 98 50 98 93 0 19 10 39 30 58 16 15 27 32 24
37 -3 4 0 8 5 8 16 0 14 77 -3 83 -19 8 -26 55 -9 61 10 4 11 10 3 25 -13 25
-13 61 1 61 5 0 7 5 4 10 -3 6 -2 10 4 10 12 0 24 39 26 85 1 17 3 30 4 30 2
0 4 8 6 18 2 10 9 25 17 34 20 24 18 139 -3 154 -9 6 -14 20 -12 30 3 11 0 25
-6 33 -9 11 -9 19 0 33 9 16 7 26 -12 56 -21 33 -29 37 -66 37 -31 0 -43 4
-43 15 0 23 -68 51 -90 37 -14 -9 -20 -8 -23 1 -6 18 -58 -9 -64 -33 -3 -11
-9 -20 -13 -20 -5 0 -3 -13 3 -30 6 -16 15 -30 20 -30 4 0 5 -4 2 -10 -3 -5 1
-10 9 -10 9 0 16 -4 16 -9 0 -5 11 -23 25 -39 13 -16 22 -32 18 -35 -3 -4 -1
-12 4 -19 5 -7 9 -24 8 -38 -1 -30 -35 -100 -48 -100 -4 0 -24 -12 -43 -26
-19 -15 -34 -23 -34 -18 0 4 -5 3 -12 -4 -15 -15 -74 -16 -83 -2 -4 6 -12 10
-18 9 -7 -1 -22 2 -35 6 -17 6 -21 12 -16 29 3 11 10 25 15 31 17 18 10 66
-13 85 l-22 18 37 43 c56 64 62 73 62 81 0 4 8 16 17 27 9 11 14 22 11 25 -3
3 -1 11 5 18 6 7 10 15 11 18 0 7 11 40 22 67 4 13 6 30 3 38 -4 8 -2 15 4 15
5 0 12 26 15 58 3 31 7 66 10 77 2 11 1 25 -3 30 -5 6 -11 37 -14 70 -3 33 -6
70 -8 83 -1 12 -6 22 -10 22 -4 0 -8 7 -8 15 0 9 -12 39 -27 68 -15 29 -27 55
-28 60 0 4 -12 23 -27 41 -16 19 -28 38 -28 41 0 9 -80 85 -89 85 -4 0 -16 9
-26 20 -10 11 -24 20 -32 20 -7 0 -13 5 -13 10 0 5 -3 9 -7 8 -5 -1 -19 3 -33
9 -66 29 -84 34 -157 40 -35 3 -63 8 -63 12 0 10 -36 11 -46 1z"/>
</g>
</svg>
